<?xml version="1.0" encoding="UTF-8"?>
<svg xmlns="http://www.w3.org/2000/svg" xmlns:xlink="http://www.w3.org/1999/xlink" width="232" height="358" viewBox="0 0 232 358">
<path fill-rule="nonzero" fill="rgb(90.039062%, 90.039062%, 90.039062%)" fill-opacity="1" d="M 108.019531 2.515625 C 116.585938 0.347656 125.648438 1.355469 133.53125 5.351562 C 142.042969 9.664062 148.429688 17.035156 153.375 25.191406 C 159.625 35.503906 163.671875 47.292969 161.878906 59.210938 C 160.121094 70.871094 152.746094 81.371094 153.375 93.226562 C 153.996094 104.964844 162.050781 114.898438 173.21875 118.738281 C 183.839844 122.386719 195.523438 119.992188 204.398438 113.066406 C 209.714844 108.917969 214.820312 103.179688 221.40625 104.5625 C 230.132812 106.398438 231.882812 117.304688 229.910156 127.238281 C 227.792969 137.90625 223.992188 148.511719 215.738281 155.585938 C 210.546875 160.035156 204.003906 162.582031 198.730469 166.925781 C 193.3125 171.382812 189.804688 178.210938 193.058594 183.933594 C 196.605469 190.164062 205.859375 189.625 210.066406 195.273438 C 217.339844 205.035156 205.824219 216.140625 193.058594 223.617188 C 186.636719 227.378906 180.65625 231.9375 176.050781 237.792969 C 169.089844 246.640625 165.714844 257.878906 167.546875 268.972656 C 169.296875 279.554688 175.566406 288.5625 181.722656 297.320312 C 187.8125 305.988281 193.792969 315.855469 190.226562 325.664062 C 186.925781 334.734375 176.855469 338.542969 170.382812 345.507812 C 165.238281 351.042969 160.554688 358.691406 153.375 356.847656 C 146.1875 355 145.894531 345.847656 142.035156 339.839844 C 136.324219 330.945312 124.503906 330.066406 113.6875 331.335938 C 105.453125 332.300781 97.054688 334.15625 91.011719 339.839844 C 84.597656 345.871094 79.898438 355.800781 71.171875 354.011719 C 62.066406 352.144531 61.953125 340.632812 59.832031 331.335938 C 57.070312 319.226562 47.105469 309.710938 45.65625 297.320312 C 44.328125 285.933594 50.285156 275.453125 56.996094 266.136719 C 63.898438 256.558594 71.660156 246.15625 68.335938 234.957031 C 65.964844 226.96875 58.597656 222.070312 51.328125 217.949219 C 41.789062 212.546875 31.972656 205.269531 34.320312 195.273438 C 36.886719 184.335938 56.640625 179.554688 51.328125 166.925781 C 48.496094 160.195312 39.324219 160.453125 34.320312 155.585938 C 27.277344 148.742188 28.972656 131.976562 17.3125 132.910156 C -21.597656 136.023438 18.945312 192.011719 34.320312 155.585938 C 38.699219 145.207031 23.703125 141.039062 17.3125 132.910156 C 10.5 124.25 13.832031 111.699219 22.980469 104.5625 C 29.445312 99.523438 37.679688 97.839844 45.65625 96.058594 C 53.613281 94.285156 61.65625 92.253906 68.335938 87.554688 C 77.667969 80.988281 82.96875 70.386719 85.34375 59.210938 C 87.738281 47.933594 87.242188 36.109375 91.011719 25.191406 C 94.171875 16.042969 100.117188 8.109375 108.019531 2.515625 "/>
<path fill="none" stroke-width="9" stroke-linecap="butt" stroke-linejoin="round" stroke="rgb(0%, 0%, 0%)" stroke-opacity="1" stroke-miterlimit="10" d="M 2980.195312 7174.84375 C 3065.859375 7196.523438 3156.484375 7186.445312 3235.3125 7146.484375 C 3320.429688 7103.359375 3384.296875 7029.648438 3433.75 6948.085938 C 3496.25 6844.960938 3536.71875 6727.070312 3518.789062 6607.890625 C 3501.210938 6491.289062 3427.460938 6386.289062 3433.75 6267.734375 C 3439.960938 6150.351562 3520.507812 6051.015625 3632.1875 6012.617188 C 3738.398438 5976.132812 3855.234375 6000.078125 3943.984375 6069.335938 C 3997.148438 6110.820312 4048.203125 6168.203125 4114.0625 6154.375 C 4201.328125 6136.015625 4218.828125 6026.953125 4199.101562 5927.617188 C 4177.929688 5820.9375 4139.921875 5714.882812 4057.382812 5644.140625 C 4005.46875 5599.648438 3940.039062 5574.179688 3887.304688 5530.742188 C 3833.125 5486.171875 3798.046875 5417.890625 3830.585938 5360.664062 C 3866.054688 5298.359375 3958.59375 5303.75 4000.664062 5247.265625 C 4073.398438 5149.648438 3958.242188 5038.59375 3830.585938 4963.828125 C 3766.367188 4926.210938 3706.5625 4880.625 3660.507812 4822.070312 C 3590.898438 4733.59375 3557.148438 4621.210938 3575.46875 4510.273438 C 3592.96875 4404.453125 3655.664062 4314.375 3717.226562 4226.796875 C 3778.125 4140.117188 3837.929688 4041.445312 3802.265625 3943.359375 C 3769.257812 3852.65625 3668.554688 3814.570312 3603.828125 3744.921875 C 3552.382812 3689.570312 3505.546875 3613.085938 3433.75 3631.523438 C 3361.875 3650 3358.945312 3741.523438 3320.351562 3801.601562 C 3263.242188 3890.546875 3145.039062 3899.335938 3036.875 3886.640625 C 2954.53125 3876.992188 2870.546875 3858.4375 2810.117188 3801.601562 C 2745.976562 3741.289062 2698.984375 3641.992188 2611.71875 3659.882812 C 2520.664062 3678.554688 2519.53125 3793.671875 2498.320312 3886.640625 C 2470.703125 4007.734375 2371.054688 4102.890625 2356.5625 4226.796875 C 2343.28125 4340.664062 2402.851562 4445.46875 2469.960938 4538.632812 C 2538.984375 4634.414062 2616.601562 4738.4375 2583.359375 4850.429688 C 2559.648438 4930.3125 2485.976562 4979.296875 2413.28125 5020.507812 C 2317.890625 5074.53125 2219.726562 5147.304688 2243.203125 5247.265625 C 2268.867188 5356.640625 2466.40625 5404.453125 2413.28125 5530.742188 C 2384.960938 5598.046875 2293.242188 5595.46875 2243.203125 5644.140625 C 2172.773438 5712.578125 2189.726562 5880.234375 2073.125 5870.898438 C 1684.023438 5839.765625 2089.453125 5279.882812 2243.203125 5644.140625 C 2286.992188 5747.929688 2137.03125 5789.609375 2073.125 5870.898438 C 2005 5957.5 2038.320312 6083.007812 2129.804688 6154.375 C 2194.453125 6204.765625 2276.796875 6221.601562 2356.5625 6239.414062 C 2436.132812 6257.148438 2516.5625 6277.460938 2583.359375 6324.453125 C 2676.679688 6390.117188 2729.6875 6496.132812 2753.4375 6607.890625 C 2777.382812 6720.664062 2772.421875 6838.90625 2810.117188 6948.085938 C 2841.71875 7039.570312 2901.171875 7118.90625 2980.195312 7174.84375 Z M 2980.195312 7174.84375 " transform="matrix(0.1, 0, 0, -0.1, -190, 720)"/>
</svg>
